<?xml version="1.0" standalone="no"?>
<svg xmlns:xlink="http://www.w3.org/1999/xlink" id="wave" style="transform:rotate(0deg); transition: 0.3s" viewBox="0 0 1440 100" version="1.1" xmlns="http://www.w3.org/2000/svg"><defs><linearGradient id="sw-gradient-0" x1="0" x2="0" y1="1" y2="0"><stop stop-color="rgba(74, 58, 200, 1)" offset="0%"/><stop stop-color="rgba(74, 58, 200, 1)" offset="100%"/></linearGradient></defs><path style="transform:translate(0, 0px); opacity:1" fill="url(#sw-gradient-0)" d="M0,30L14.1,40C28.2,50,56,70,85,65C112.9,60,141,30,169,23.3C197.6,17,226,33,254,46.7C282.4,60,311,70,339,65C367.1,60,395,40,424,33.3C451.8,27,480,33,508,43.3C536.5,53,565,67,593,68.3C621.2,70,649,60,678,55C705.9,50,734,50,762,48.3C790.6,47,819,43,847,40C875.3,37,904,33,932,30C960,27,988,23,1016,33.3C1044.7,43,1073,67,1101,71.7C1129.4,77,1158,63,1186,61.7C1214.1,60,1242,70,1271,61.7C1298.8,53,1327,27,1355,13.3C1383.5,0,1412,0,1440,5C1468.2,10,1496,20,1525,31.7C1552.9,43,1581,57,1609,51.7C1637.6,47,1666,23,1694,21.7C1722.4,20,1751,40,1779,43.3C1807.1,47,1835,33,1864,26.7C1891.8,20,1920,20,1948,21.7C1976.5,23,2005,27,2019,28.3L2032.9,30L2032.9,100L2018.8,100C2004.7,100,1976,100,1948,100C1920,100,1892,100,1864,100C1835.3,100,1807,100,1779,100C1750.6,100,1722,100,1694,100C1665.9,100,1638,100,1609,100C1581.2,100,1553,100,1525,100C1496.5,100,1468,100,1440,100C1411.8,100,1384,100,1355,100C1327.1,100,1299,100,1271,100C1242.4,100,1214,100,1186,100C1157.6,100,1129,100,1101,100C1072.9,100,1045,100,1016,100C988.2,100,960,100,932,100C903.5,100,875,100,847,100C818.8,100,791,100,762,100C734.1,100,706,100,678,100C649.4,100,621,100,593,100C564.7,100,536,100,508,100C480,100,452,100,424,100C395.3,100,367,100,339,100C310.6,100,282,100,254,100C225.9,100,198,100,169,100C141.2,100,113,100,85,100C56.5,100,28,100,14,100L0,100Z"/></svg>